<svg width="536" height="498" viewBox="0 0 536 498" fill="none" xmlns="http://www.w3.org/2000/svg">
<g clip-path="url(#clip0_55_5104)">
<path d="M0 30.6286C0 13.7129 13.7129 0 30.6286 0H505.371C522.287 0 536 13.7129 536 30.6286V38.2857H0V30.6286Z" fill="#D14663"/>
<path d="M19.143 15.3145C21.256 15.3145 22.9716 17.03 22.9716 19.143C22.9716 21.256 21.256 22.9716 19.143 22.9716C17.03 22.9716 15.3145 21.256 15.3145 19.143C15.3145 17.03 17.03 15.3145 19.143 15.3145Z" fill="white"/>
<path d="M34.457 15.3145C36.57 15.3145 38.2856 17.03 38.2856 19.143C38.2856 21.256 36.57 22.9716 34.457 22.9716C32.344 22.9716 30.6284 21.256 30.6284 19.143C30.6284 17.03 32.344 15.3145 34.457 15.3145Z" fill="white"/>
<path d="M49.7714 15.3145C51.8844 15.3145 53.6 17.03 53.6 19.143C53.6 21.256 51.8844 22.9716 49.7714 22.9716C47.6585 22.9716 45.9429 21.256 45.9429 19.143C45.9429 17.03 47.6585 15.3145 49.7714 15.3145Z" fill="white"/>
<rect width="536" height="459.429" transform="translate(0 38.2856)" fill="#F5F6FA"/>
<rect x="45.9429" y="84.2285" width="202.914" height="15.3143" rx="5.08172" fill="#D14663"/>
<rect x="45.9429" y="130.171" width="214.4" height="130.171" rx="7.65714" fill="white"/>
<rect x="61.2573" y="145.486" width="53.6" height="53.6" rx="7.65714" fill="#FAEDEF"/>
<g clip-path="url(#clip1_55_5104)">
<path d="M78.4861 171.328H89.0146C89.5223 171.328 90.0092 171.127 90.3682 170.768C90.7272 170.409 90.9289 169.922 90.9289 169.414V162.714C90.9289 162.206 90.7272 161.719 90.3682 161.36C90.0092 161.001 89.5223 160.8 89.0146 160.8H78.4861C77.9784 160.8 77.4915 161.001 77.1325 161.36C76.7735 161.719 76.5718 162.206 76.5718 162.714V169.414C76.5718 169.922 76.7735 170.409 77.1325 170.768C77.4915 171.127 77.9784 171.328 78.4861 171.328ZM78.4861 162.714H89.0146V169.414H78.4861V162.714Z" fill="#D14663"/>
<path d="M97.629 160.8H94.7575C94.2498 160.8 93.7629 161.001 93.4039 161.36C93.0449 161.719 92.8433 162.206 92.8433 162.714V169.414C92.8433 169.922 93.0449 170.409 93.4039 170.768C93.7629 171.127 94.2498 171.328 94.7575 171.328H97.629C98.1367 171.328 98.6236 171.127 98.9826 170.768C99.3416 170.409 99.5433 169.922 99.5433 169.414V162.714C99.5433 162.206 99.3416 161.719 98.9826 161.36C98.6236 161.001 98.1367 160.8 97.629 160.8ZM97.629 169.414H94.7575V162.714H97.629V169.414Z" fill="#D14663"/>
<path d="M81.3575 173.244H78.4861C77.9784 173.244 77.4915 173.445 77.1325 173.804C76.7735 174.163 76.5718 174.65 76.5718 175.158V181.858C76.5718 182.366 76.7735 182.853 77.1325 183.212C77.4915 183.571 77.9784 183.772 78.4861 183.772H81.3575C81.8652 183.772 82.3521 183.571 82.7111 183.212C83.0701 182.853 83.2718 182.366 83.2718 181.858V175.158C83.2718 174.65 83.0701 174.163 82.7111 173.804C82.3521 173.445 81.8652 173.244 81.3575 173.244ZM81.3575 181.858H78.4861V175.158H81.3575V181.858Z" fill="#D14663"/>
<path d="M97.6289 173.244H87.1003C86.5926 173.244 86.1057 173.445 85.7467 173.804C85.3877 174.163 85.186 174.65 85.186 175.158V181.858C85.186 182.366 85.3877 182.853 85.7467 183.212C86.1057 183.571 86.5926 183.772 87.1003 183.772H97.6289C98.1366 183.772 98.6235 183.571 98.9825 183.212C99.3415 182.853 99.5432 182.366 99.5432 181.858V175.158C99.5432 174.65 99.3415 174.163 98.9825 173.804C98.6235 173.445 98.1366 173.244 97.6289 173.244ZM97.6289 181.858H87.1003V175.158H97.6289V181.858Z" fill="#D14663"/>
</g>
<rect x="61.2573" y="206.743" width="105.286" height="7.65714" rx="3.82857" fill="#93A3B0"/>
<rect x="61.2573" y="229.714" width="183.771" height="15.3143" rx="5.08172" fill="#D14663"/>
<rect x="275.657" y="160.8" width="214.4" height="130.171" rx="7.65714" fill="white"/>
<rect x="290.972" y="176.114" width="53.6" height="53.6" rx="7.65714" fill="#FAEDEF"/>
<g clip-path="url(#clip2_55_5104)">
<path d="M320.306 196.686C321.142 196.015 322.002 195.114 322.439 194.017C322.667 193.444 322.593 192.795 322.243 192.279C321.882 191.746 321.283 191.429 320.643 191.429H314.9C314.26 191.429 313.662 191.746 313.301 192.279C312.951 192.795 312.878 193.444 313.105 194.017C313.541 195.113 314.402 196.015 315.237 196.686C310.781 198.34 307.243 204.024 307.243 208.657C307.243 211.824 309.819 214.4 312.986 214.4H322.557C325.725 214.4 328.3 211.824 328.3 208.657C328.3 204.024 324.763 198.34 320.306 196.686ZM320.659 193.309C320.166 194.551 318.655 195.6 317.77 196.095C316.886 195.604 315.382 194.563 314.899 193.343L320.659 193.309ZM322.556 212.486H312.986C310.875 212.486 309.157 210.769 309.157 208.657C309.157 203.639 313.666 198.129 317.772 198.129C321.878 198.129 326.386 203.639 326.386 208.657C326.386 210.769 324.668 212.486 322.556 212.486ZM317.771 212.486C317.242 212.486 316.814 212.057 316.814 211.529V210.572H316.557C315.535 210.572 314.583 210.022 314.07 209.137C313.806 208.679 313.962 208.094 314.42 207.829C314.875 207.564 315.462 207.72 315.727 208.179C315.898 208.474 316.216 208.657 316.557 208.657H318.728C319.255 208.657 319.685 208.228 319.685 207.7C319.685 207.338 319.426 207.032 319.069 206.973L316.157 206.487C314.874 206.274 313.941 205.173 313.941 203.872C313.941 202.288 315.23 201 316.813 201V200.043C316.813 199.515 317.241 199.086 317.77 199.086C318.298 199.086 318.727 199.515 318.727 200.043V201H318.983C320.005 201 320.958 201.55 321.47 202.436C321.734 202.893 321.578 203.478 321.121 203.743C320.664 204.008 320.078 203.852 319.813 203.394C319.642 203.098 319.324 202.915 318.983 202.915H316.813C316.285 202.915 315.856 203.345 315.856 203.873C315.856 204.234 316.115 204.541 316.472 204.6L319.384 205.085C320.667 205.299 321.599 206.399 321.599 207.701C321.599 209.284 320.311 210.573 318.728 210.573V211.53C318.728 212.058 318.299 212.486 317.771 212.486Z" fill="#D14663"/>
</g>
<rect x="290.972" y="237.371" width="130.171" height="7.65714" rx="3.82857" fill="#93A3B0"/>
<rect x="290.972" y="260.342" width="111.029" height="15.3143" rx="5.08172" fill="#D14663"/>
<rect x="45.9429" y="290.972" width="214.4" height="130.171" rx="7.65714" fill="white"/>
<rect x="61.2573" y="306.286" width="53.6" height="53.6" rx="7.65714" fill="#FAEDEF"/>
<g clip-path="url(#clip3_55_5104)">
<path d="M99.1808 328.144L97.8868 325.439C97.5527 324.74 96.9392 324.198 96.2041 323.953L90.177 321.944C88.8102 321.489 87.3056 321.489 85.9388 321.944L79.9126 323.953C79.1765 324.198 78.563 324.741 78.229 325.441L76.9981 328.032C76.5415 328.79 76.4554 329.699 76.7617 330.529C77.0574 331.333 77.6844 331.955 78.4864 332.248L78.4817 338.291C78.4797 340.357 79.7949 342.183 81.7532 342.836L85.9311 344.228C86.6145 344.456 87.3324 344.57 88.0502 344.57C88.7681 344.57 89.4859 344.456 90.1693 344.228L94.3511 342.834C96.3065 342.182 97.6216 340.36 97.6236 338.298L97.6283 332.249C98.4381 331.965 99.0717 331.343 99.3694 330.536C99.6728 329.714 99.5886 328.814 99.1808 328.144ZM86.5446 323.761C87.5209 323.435 88.5958 323.435 89.5711 323.761L93.6371 325.116L88.0646 326.983L82.4806 325.116L86.5446 323.761ZM78.6817 328.938L79.9518 326.275C79.9978 326.299 86.7064 328.547 86.7064 328.547L85.1549 331.665C84.9261 332.046 84.4514 332.222 84.0321 332.08L79.1689 330.46C78.8846 330.365 78.6616 330.149 78.5573 329.867C78.4529 329.586 78.4826 329.278 78.6807 328.939L78.6817 328.938ZM82.3581 341.02C81.1827 340.629 80.394 339.533 80.395 338.294L80.3998 332.888L83.4263 333.897C84.7127 334.326 86.0986 333.814 86.8327 332.585L87.0988 332.052L87.094 342.562C86.9055 342.524 86.7198 342.475 86.5379 342.414L82.359 341.021L82.3581 341.02ZM93.7452 341.019L89.5625 342.414C89.3806 342.474 89.195 342.524 89.0064 342.562L89.0112 332.038L89.3165 332.651C89.8487 333.539 90.7829 334.047 91.7678 334.047C92.0731 334.047 92.3832 333.998 92.6866 333.897L95.7121 332.889L95.7074 338.298C95.7074 339.535 94.9168 340.629 93.7433 341.02L93.7452 341.019ZM97.5738 329.874C97.4733 330.147 97.257 330.357 96.9813 330.448L92.0827 332.081C91.6634 332.222 91.1887 332.048 90.9953 331.732L89.4113 328.551C89.4113 328.551 96.117 326.301 96.163 326.276L97.4963 329.053C97.6465 329.303 97.6743 329.602 97.5738 329.875V329.874Z" fill="#D14663"/>
</g>
<rect x="61.2573" y="367.543" width="45.9429" height="7.65714" rx="3.82857" fill="#93A3B0"/>
<rect x="61.2573" y="390.514" width="88.0571" height="15.3143" rx="5.08172" fill="#D14663"/>
<rect x="275.657" y="321.601" width="214.4" height="130.171" rx="7.65714" fill="white"/>
<rect x="290.972" y="336.915" width="53.6" height="53.6" rx="7.65714" fill="#FAEDEF"/>
<g clip-path="url(#clip4_55_5104)">
<path d="M317.772 367.544C317.015 367.544 316.274 367.319 315.645 366.899C315.015 366.478 314.524 365.88 314.235 365.18C313.945 364.481 313.869 363.711 314.017 362.968C314.165 362.226 314.529 361.543 315.065 361.008C315.6 360.473 316.282 360.108 317.025 359.96C317.768 359.812 318.537 359.888 319.237 360.178C319.937 360.468 320.534 360.959 320.955 361.588C321.376 362.218 321.6 362.958 321.6 363.715C321.6 364.731 321.197 365.704 320.479 366.422C319.761 367.14 318.787 367.544 317.772 367.544ZM317.772 361.801C317.393 361.801 317.023 361.913 316.708 362.124C316.394 362.334 316.148 362.633 316.003 362.983C315.858 363.332 315.82 363.717 315.894 364.089C315.968 364.46 316.151 364.801 316.418 365.069C316.686 365.337 317.027 365.519 317.398 365.593C317.77 365.667 318.155 365.629 318.504 365.484C318.854 365.339 319.153 365.094 319.364 364.779C319.574 364.464 319.686 364.094 319.686 363.715C319.686 363.208 319.484 362.721 319.125 362.362C318.766 362.003 318.28 361.801 317.772 361.801ZM323.515 374.244C323.515 372.721 322.91 371.26 321.833 370.183C320.756 369.106 319.295 368.501 317.772 368.501C316.249 368.501 314.788 369.106 313.711 370.183C312.634 371.26 312.029 372.721 312.029 374.244C312.029 374.498 312.13 374.741 312.309 374.921C312.489 375.1 312.732 375.201 312.986 375.201C313.24 375.201 313.483 375.1 313.663 374.921C313.842 374.741 313.943 374.498 313.943 374.244C313.943 373.228 314.347 372.255 315.065 371.537C315.783 370.819 316.756 370.415 317.772 370.415C318.787 370.415 319.761 370.819 320.479 371.537C321.197 372.255 321.6 373.228 321.6 374.244C321.6 374.498 321.701 374.741 321.881 374.921C322.06 375.1 322.304 375.201 322.558 375.201C322.811 375.201 323.055 375.1 323.234 374.921C323.414 374.741 323.515 374.498 323.515 374.244ZM323.515 359.887C322.757 359.887 322.017 359.662 321.388 359.241C320.758 358.821 320.267 358.223 319.978 357.523C319.688 356.824 319.612 356.054 319.76 355.311C319.907 354.568 320.272 353.886 320.807 353.351C321.343 352.815 322.025 352.451 322.768 352.303C323.51 352.155 324.28 352.231 324.98 352.521C325.679 352.811 326.277 353.301 326.698 353.931C327.119 354.561 327.343 355.301 327.343 356.058C327.343 357.073 326.94 358.047 326.222 358.765C325.504 359.483 324.53 359.887 323.515 359.887ZM323.515 354.144C323.136 354.144 322.766 354.256 322.451 354.466C322.136 354.677 321.891 354.976 321.746 355.326C321.601 355.675 321.563 356.06 321.637 356.432C321.711 356.803 321.893 357.144 322.161 357.412C322.429 357.679 322.77 357.862 323.141 357.936C323.513 358.009 323.897 357.972 324.247 357.827C324.597 357.682 324.896 357.436 325.106 357.122C325.317 356.807 325.429 356.437 325.429 356.058C325.429 355.55 325.227 355.063 324.868 354.704C324.509 354.345 324.022 354.144 323.515 354.144ZM329.258 366.587C329.256 365.064 328.651 363.604 327.574 362.528C326.497 361.451 325.037 360.845 323.515 360.844C323.261 360.844 323.017 360.945 322.838 361.124C322.658 361.304 322.558 361.547 322.558 361.801C322.558 362.055 322.658 362.298 322.838 362.478C323.017 362.657 323.261 362.758 323.515 362.758C324.53 362.758 325.504 363.161 326.222 363.879C326.94 364.597 327.343 365.571 327.343 366.587C327.343 366.84 327.444 367.084 327.624 367.263C327.803 367.443 328.047 367.544 328.3 367.544C328.554 367.544 328.798 367.443 328.977 367.263C329.157 367.084 329.258 366.84 329.258 366.587ZM312.029 359.887C311.272 359.887 310.532 359.662 309.902 359.241C309.272 358.821 308.782 358.223 308.492 357.523C308.202 356.824 308.126 356.054 308.274 355.311C308.422 354.568 308.786 353.886 309.322 353.351C309.857 352.815 310.539 352.451 311.282 352.303C312.025 352.155 312.795 352.231 313.494 352.521C314.194 352.811 314.792 353.301 315.212 353.931C315.633 354.561 315.858 355.301 315.858 356.058C315.858 357.073 315.454 358.047 314.736 358.765C314.018 359.483 313.044 359.887 312.029 359.887ZM312.029 354.144C311.65 354.144 311.28 354.256 310.965 354.466C310.651 354.677 310.405 354.976 310.26 355.326C310.116 355.675 310.078 356.06 310.151 356.432C310.225 356.803 310.408 357.144 310.675 357.412C310.943 357.679 311.284 357.862 311.656 357.936C312.027 358.009 312.412 357.972 312.762 357.827C313.111 357.682 313.41 357.436 313.621 357.122C313.831 356.807 313.943 356.437 313.943 356.058C313.943 355.55 313.742 355.063 313.383 354.704C313.024 354.345 312.537 354.144 312.029 354.144ZM308.2 366.587C308.2 365.571 308.604 364.597 309.322 363.879C310.04 363.161 311.014 362.758 312.029 362.758C312.283 362.758 312.526 362.657 312.706 362.478C312.885 362.298 312.986 362.055 312.986 361.801C312.986 361.547 312.885 361.304 312.706 361.124C312.526 360.945 312.283 360.844 312.029 360.844C310.506 360.845 309.047 361.451 307.97 362.528C306.893 363.604 306.288 365.064 306.286 366.587C306.286 366.84 306.387 367.084 306.566 367.263C306.746 367.443 306.989 367.544 307.243 367.544C307.497 367.544 307.741 367.443 307.92 367.263C308.1 367.084 308.2 366.84 308.2 366.587Z" fill="#D14663"/>
</g>
<rect x="290.972" y="398.172" width="74.6571" height="7.65714" rx="3.82857" fill="#93A3B0"/>
<rect x="290.972" y="421.143" width="118.686" height="15.3143" rx="5.08172" fill="#D14663"/>
</g>
<defs>
<clipPath id="clip0_55_5104">
<rect width="536" height="497.715" rx="15.3143" fill="white"/>
</clipPath>
<clipPath id="clip1_55_5104">
<rect width="22.9714" height="22.9714" fill="white" transform="translate(76.5718 160.8)"/>
</clipPath>
<clipPath id="clip2_55_5104">
<rect width="22.9714" height="22.9714" fill="white" transform="translate(306.286 191.429)"/>
</clipPath>
<clipPath id="clip3_55_5104">
<rect width="22.9714" height="22.9714" fill="white" transform="translate(76.5718 321.601)"/>
</clipPath>
<clipPath id="clip4_55_5104">
<rect width="22.9714" height="22.9714" fill="white" transform="translate(306.286 352.229)"/>
</clipPath>
</defs>
</svg>
